<?xml version="1.0" encoding="utf-8"?>
<!DOCTYPE svg PUBLIC "-//W3C//DTD SVG 1.1//EN" "http://www.w3.org/Graphics/SVG/1.1/DTD/svg11.dtd">
<svg version="1.1" xmlns="http://www.w3.org/2000/svg" xmlns:xlink="http://www.w3.org/1999/xlink" x="0px" y="0px" viewBox="0 0 1000 1000" enable-background="new 0 0 1000 1000" xml:space="preserve">
<g><path fill="#41a7f9" d="M603.2,138.9c0,71.2-57.7,128.9-128.9,128.9s-128.9-57.7-128.9-128.9C345.3,67.7,403,10,474.2,10C545.4,10,603.2,67.7,603.2,138.9L603.2,138.9z M747.7,368.3c29.8,0,59.5-11.3,82.1-34c45.3-45.3,45.3-118.8,0-164.1c-22.7-22.7-52.4-34-82.1-34c-29.7,0-59.4,11.3-82,34c-45.3,45.3-45.3,118.8,0,164.1C688.4,357,718.1,368.3,747.7,368.3L747.7,368.3z M861.1,422.6c-56.9,0.1-103.2,46.2-103.2,103.2c0,57,46.2,103.3,103.2,103.3c57.1,0,103.2-46.2,103.2-103.3C964.2,468.8,918.1,422.6,861.1,422.6L861.1,422.6z M747.9,709c-23.2,0-46.3,8.9-63.8,26.5c-35.3,35.3-35.3,92.5,0,127.7c17.6,17.6,40.7,26.4,63.8,26.4c23,0,46.2-8.8,63.8-26.5c35.2-35.1,35.2-92.3,0-127.6C794.1,717.9,770.8,709,747.9,709L747.9,709z M474.3,835.2c-42.8,0-77.3,34.8-77.3,77.4c0,42.8,34.6,77.4,77.4,77.4c42.7,0,77.3-34.6,77.3-77.3C551.7,870,517,835.2,474.3,835.2L474.3,835.2z M200.7,735c-16.5,0-33,6.4-45.6,19c-25.2,25.2-25.2,65.9,0,91.2c12.6,12.6,29.1,18.9,45.6,18.9c16.4,0,33-6.3,45.6-18.9c25.1-25.2,25.2-66.1,0-91.2C233.8,741.3,217.2,735,200.7,735L200.7,735z M87.4,474.3c-28.5,0-51.6,23-51.6,51.6c0,28.4,23,51.5,51.6,51.5c28.5,0,51.7-23,51.6-51.5C139,497.3,115.8,474.3,87.4,474.3L87.4,474.3z M200.6,290.9L200.6,290.9c2.4,0,4.8-1,7.3-1.4c7.3-1.5,14.4-4.3,20.1-9.9c15.1-15,15.1-39.6,0-54.7c-7.6-7.5-17.5-11.3-27.4-11.3c-9.9,0-19.8,3.9-27.4,11.3c-15.1,15.1-15.1,39.6,0,54.7C180.7,287.2,190.7,290.9,200.6,290.9L200.6,290.9z"/><animateTransform attributeName="transform" type="rotate" from="0 500 500" to="-360 500 500" dur="2000ms" repeatCount="indefinite"></animateTransform></g>
</svg>