<?xml version="1.0" encoding="utf-8"?>
<!-- Svg Vector Icons : http://www.onlinewebfonts.com/icon -->
<!DOCTYPE svg PUBLIC "-//W3C//DTD SVG 1.1//EN" "http://www.w3.org/Graphics/SVG/1.1/DTD/svg11.dtd">
<svg version="1.1" xmlns="http://www.w3.org/2000/svg" xmlns:xlink="http://www.w3.org/1999/xlink" x="0px" y="0px" viewBox="0 0 1000 1000" enable-background="new 0 0 1000 1000" xml:space="preserve">
<metadata> Svg Vector Icons : http://www.onlinewebfonts.com/icon </metadata>
<g><path d="M865.9,109.2C799.3,45.2,710.8,10,616.8,10C441.6,10,296.4,133.7,269,295c10.2-1.5,20.6-2.6,31.1-2.6c6.9,0,13.6,1.4,20.3,2c27.1-133,149.6-233.7,296.4-233.7c80.8,0,156.8,30.2,213.9,85c56.8,54.5,88,126.9,88,204c0,159.3-135.5,288.9-302,288.9c-48.1,0-93.4-11.1-133.8-30.3c-8.6,15.1-19.1,29-31,41.4c49.2,25.2,105.3,39.6,164.8,39.6c194.5,0,352.7-152.4,352.7-339.6C969.5,258.7,932.7,173.4,865.9,109.2L865.9,109.2z"/><path d="M588.9,521.4c0,23.1,18.8,42,42,42c23.1,0,42-18.8,42-42c0-23.1-18.8-42-42-42C607.8,479.4,588.9,498.3,588.9,521.4z M622.2,129.4c42.4,0,77.9,20.1,97.5,55.1c19.5,34.9,19.7,79.2,0.6,110.4c-14.5,23.6-30.6,37.8-43.6,49.2c-20.3,17.8-31.5,27.7-31.5,70.5c0,15.2-12.4,27.6-27.6,27.6c-15.2,0-27.6-12.4-27.6-27.6c0-67.8,26.7-91.3,50.2-112c11.7-10.3,22.8-20,33-36.6c8.7-14.2,8-37.2-1.7-54.5c-6.9-12.2-21-26.9-49.4-26.9c-38.6,0-57.2,15.2-64.4,52.3c-2.9,14.9-17.4,24.7-32.3,21.8c-15-2.9-24.7-17.4-21.9-32.3C515.9,162.9,556.9,129.4,622.2,129.4L622.2,129.4z"/><path d="M492.1,493.8c0,100.3-81.3,181.5-181.6,181.5C210.2,675.3,129,594,129,493.8c0-100.2,81.2-181.6,181.5-181.6C410.8,312.2,492.1,393.6,492.1,493.8L492.1,493.8z"/><path d="M579.4,748.7c-1.4-19.5-15.2-36-34.3-40.8l-106.6-26.6c-36.5,24.7-80.6,39-128,39c-47.5,0-91.7-14.5-128.4-39.4L73.9,708.5c-18.1,5.4-30.9,21.4-32.3,40.2L30.5,903.6C110.3,958,206.7,990,310.5,990c103.8,0,200.2-32,280.1-86.4L579.4,748.7L579.4,748.7z"/></g>
</svg>