<svg xmlns="http://www.w3.org/2000/svg" viewBox="0 0 48 48" width="48" height="48">
  <circle cx="24" cy="24" r="22" fill="#25D366"/>
  <path d="M34.6 13.4c-2.8-2.8-6.5-4.4-10.5-4.4-8.2 0-14.9 6.7-14.9 14.9 0 2.6.7 5.2 2 7.5l-2.1 7.7 7.9-2.1c2.2 1.2 4.7 1.8 7.2 1.8 8.2 0 14.9-6.7 14.9-14.9-.1-4-1.7-7.7-4.5-10.5zm-10.5 22.9c-2.2 0-4.4-.6-6.3-1.7l-.5-.3-4.7 1.2 1.2-4.5-.3-.5c-1.2-2-1.9-4.3-1.9-6.6 0-6.8 5.5-12.4 12.4-12.4 3.3 0 6.4 1.3 8.8 3.6 2.3 2.3 3.6 5.5 3.6 8.8 0 6.8-5.6 12.4-12.3 12.4zm6.8-9.3c-.4-.2-2.2-1.1-2.6-1.2-.4-.1-.6-.2-.9.2-.2.4-.9 1.2-1.1 1.4-.2.2-.4.2-.8 0-.4-.2-1.6-.6-3.1-1.9-1.1-1-1.9-2.3-2.1-2.6-.2-.4 0-.6.2-.8.2-.2.4-.4.6-.6.2-.2.2-.4.4-.6.1-.2 0-.5 0-.6-.1-.2-.9-2.1-1.2-2.9-.3-.8-.6-.7-.9-.7h-.7c-.2 0-.6.1-1 .5s-1.3 1.3-1.3 3.1c0 1.8 1.3 3.6 1.5 3.8.2.2 2.6 4 6.3 5.6.9.4 1.6.6 2.1.8.9.3 1.7.3 2.3.2.7-.1 2.2-.9 2.5-1.8.3-.9.3-1.6.2-1.8-.1-.1-.3-.2-.7-.4z" fill="#fff"/>
</svg>
